<svg id="Layer_1" data-name="Layer 1" xmlns="http://www.w3.org/2000/svg" viewBox="0 0 512 512"><defs><style>.cls-1{fill:#141f38;}</style></defs><title>uranus_style_2</title><path class="cls-1" d="M223.61,320.08a12.82,12.82,0,0,1-12.82,12.82H191.57a12.82,12.82,0,1,1,0-25.63h19.22A12.82,12.82,0,0,1,223.61,320.08ZM473.1,242.92c.26,4.33.42,8.68.42,13.08,0,120.33-97.54,217.88-217.87,217.88A216.77,216.77,0,0,1,137.46,439l-.11,0a276.08,276.08,0,0,1-37.36,2.7c-43.64,0-76.83-12.5-91.7-38.32C-10.1,371.54,3,325.66,38.86,277.85c-.71-7.19-1.09-14.47-1.09-21.85,0-120.33,97.55-217.88,217.88-217.88A216.91,216.91,0,0,1,385.28,80.89c-.18-.13-.33-.28-.51-.41A270.51,270.51,0,0,1,412,79c43.64,0,76.83,12.49,91.7,38.32,18.39,31.85,5.32,77.73-30.57,125.53ZM411.72,104l.29.3v0Zm-304,311.83A217.75,217.75,0,0,1,45.61,314c-19.27,31.65-25.14,59.32-15.14,76.61C39.95,407,64.69,416.08,100,416.08Q103.74,416.08,107.69,415.88ZM143.56,412c42.85-7.25,91.54-24.24,139.16-48.84a44.78,44.78,0,0,1,73.08-44.66c38.1-27.23,68.83-56.32,90.88-83.85a190.2,190.2,0,0,0-5.78-30H345.36a12.82,12.82,0,0,1,0-25.63h86.43a192,192,0,0,0-13.64-25.63H281.28a12.82,12.82,0,1,1,0-25.63h117.5A191.77,191.77,0,0,0,255.65,63.76C149.64,63.76,63.4,150,63.4,256H242.83a12.82,12.82,0,1,1,0,25.63H65.16a190.65,190.65,0,0,0,5.24,25.64h82.72a12.82,12.82,0,0,1,0,25.63H79.5A193.35,193.35,0,0,0,143.56,412ZM326.14,332.9a19.23,19.23,0,1,0,19.22,19.22A19.25,19.25,0,0,0,326.14,332.9Zm120.91-59.3c-21.47,22.85-47.67,45.51-77.67,66.77a44.79,44.79,0,0,1-73.62,44.69C254.88,406.35,214.3,422,176.9,431.3a191,191,0,0,0,78.75,16.94C355.71,448.24,438.13,371.38,447.05,273.6ZM467.5,205c18.46-31,23.84-57.8,14-74.84-4.74-8.21-13.26-14.62-25.05-18.91s-26.59-6.6-44.15-6.6h0A217.51,217.51,0,0,1,467.47,205Z"/></svg>